<svg version="1.1" width="246" height="237" viewBox="-1 -1 246 237" xmlns="http://www.w3.org/2000/svg" xmlns:xlink="http://www.w3.org/1999/xlink">
  <!-- Exported by Scratch - http://scratch.mit.edu/ -->
  <g id="ID0.13534306082874537">
    <path id="ID0.3196420636959374" fill="#00A98E" d="M 60.499 116.014 C 54.647 115.559 50.835 116.921 45.560 114.350 C 40.016 111.624 40.324 106.214 38.629 100.426 C 36.858 94.335 31.544 87.260 25.692 90.136 C 20.109 92.860 13.678 96.643 9.982 91.800 C 12.447 91.498 12.253 90.968 14.757 89.529 C 17.298 88.091 20.610 78.140 22.457 76.213 C 24.690 73.868 28.850 73.490 32.160 73.490 C 37.704 73.490 41.632 73.376 44.943 77.726 C 48.755 82.720 48.755 88.923 54.954 90.439 C 52.259 74.397 57.689 60.324 72.512 53.060 C 79.404 49.693 85.295 45.833 84.988 38.381 C 84.873 35.506 83.640 33.992 83.910 31.117 C 84.371 26.312 87.953 24.421 92.534 22.189 C 90.222 17.649 93.921 11.256 98.849 11.445 C 101.927 11.558 103.621 12.958 105.779 15.076 C 106.627 15.909 106.472 17.194 107.628 17.497 C 109.283 17.951 110.361 17.497 112.094 17.497 C 112.094 14.622 111.824 11.103 114.713 10.535 C 117.755 9.969 120.025 11.822 121.488 14.471 C 120.911 15.114 120.525 15.492 119.948 16.136 L 123.181 19.616 C 127.148 17.687 132.037 15.454 136.426 14.924 C 140.509 14.433 140.818 15.795 142.433 19.465 C 145.937 27.297 138.505 34.030 130.882 38.230 C 127.840 39.894 126.416 39.932 123.028 38.987 C 118.483 37.700 115.751 32.745 111.169 33.841 C 109.949 34.130 107.689 34.967 106.972 36.149 C 105.904 37.912 106.853 40.260 108.398 41.257 C 111.554 43.300 115.060 44.434 118.872 44.434 C 118.872 47.764 115.869 49.580 112.557 50.336 C 109.940 50.941 107.399 49.580 105.783 51.699 C 102.201 56.390 102.510 60.968 104.242 66.680 C 105.204 69.933 107.131 71.333 107.475 74.701 C 107.938 79.053 109.516 83.139 108.553 87.413 C 107.667 91.423 106.628 91.952 105.936 96.039 C 109.555 100.011 107.360 104.777 105.319 109.658 C 107.169 110.263 108.285 111.019 110.249 110.868 C 110.672 105.572 115.794 98.157 120.104 101.336 C 118.411 102.658 117.793 103.757 117.024 105.725 C 119.874 104.626 123.339 103.718 124.725 106.481 L 120.873 109.507 C 122.066 111.511 123.531 112.382 124.107 114.653 C 119.411 114.653 116.984 117.678 114.251 121.463 C 112.902 123.357 109.898 123.847 108.245 122.222 C 106.666 120.669 107.937 118.060 105.933 117.076 C 100.273 114.314 95.769 117.982 89.763 116.168 C 87.220 115.411 86.835 112.611 86.835 109.964 C 84.949 110.531 84.524 112.082 83.140 113.443 C 79.789 116.734 76.364 118.211 77.286 122.827 C 78.441 128.539 85.603 121.464 90.841 125.551 C 90.841 127.745 89.378 127.291 87.451 128.426 C 89.493 130.014 91.109 131.188 91.303 133.723 C 89.225 133.723 87.760 134.026 86.221 135.387 C 87.297 137.203 86.491 141.024 84.371 140.533 C 81.907 139.929 81.214 137.962 78.827 137.205 C 76.439 135.124 73.822 137.092 70.665 136.601 C 67.969 136.185 68.739 132.628 68.816 129.941 C 68.970 125.706 63.695 125.478 61.424 121.920 C 60.152 119.947 60.499 118.359 60.499 116.014 Z " transform="matrix(1.7689123153686523, 0, 0, 1.7689123153686523, -12.25, -14.95)"/>
    <path id="ID0.27558302879333496" fill="#00A98E" d="M 103.932 65.167 C 105.780 65.167 107.512 66.378 108.705 65.015 C 111.361 61.989 110.898 59.114 112.247 55.331 C 113.325 52.304 116.752 51.283 119.947 52.001 C 121.333 52.304 122.681 53.364 122.412 54.725 C 122.142 56.125 120.101 55.558 119.178 56.692 C 121.333 57.752 122.875 59.190 122.875 61.535 C 119.794 61.837 115.598 61.233 115.480 64.259 C 115.366 67.626 115.019 69.594 114.404 72.885 C 113.863 75.723 107.165 75.078 106.855 74.096 C 105.850 70.876 104.200 68.534 103.932 65.167 Z " transform="matrix(1.7689123153686523, 0, 0, 1.7689123153686523, -12.25, -14.95)"/>
    <path id="ID0.8755226982757449" fill="#272525" d="M 123.373 13.398 C 123.550 14.089 121.332 15.224 120.725 15.758 C 127.918 19.613 121.903 25.894 117.891 22.719 C 113.580 19.311 118.759 13.117 123.373 13.398 Z " transform="matrix(1.7689123153686523, 0, 0, 1.7689123153686523, -12.25, -14.95)"/>
    <path id="ID0.6900207637809217" fill="#272525" d="M 140.066 31.557 C 140.740 32.706 141.859 34.188 141.545 35.189 C 140.855 37.388 137.079 34.787 137.079 34.787 C 137.079 34.787 136.386 35.431 135.938 35.916 C 136.324 36.954 136.428 38.350 135.964 39.078 C 135.592 39.663 134.852 39.817 133.596 39.003 C 132.987 38.608 132.579 38.457 132.262 38.447 C 131.651 38.873 131.033 39.138 129.899 39.427 C 130.079 40.322 129.783 42.609 129.108 43.376 C 127.645 45.041 126.297 40.236 126.297 40.236 C 126.297 40.236 124.643 40.122 123.757 39.857 C 122.871 40.651 121.676 42.590 120.829 42.090 C 120.210 41.723 120.291 40.274 120.329 38.344 C 119.904 37.928 119.366 37.625 118.712 37.172 C 117.910 37.845 116.098 40.094 115.113 39.427 C 114.128 38.760 115.228 35.977 115.236 34.887 C 115.015 34.689 114.506 34.462 114.207 34.674 C 113.477 36.340 112.727 37.695 112.166 37.663 C 111.428 37.621 110.809 35.433 110.370 34.766 C 108.010 35.317 106.469 36.490 107.971 39.517 C 108.950 39.350 110.346 38.392 110.987 39.124 C 111.444 39.646 110.897 41.181 110.666 42.089 C 110.737 42.461 111.280 42.600 111.728 42.756 C 112.312 42.029 113.369 40.001 114.095 40.197 C 114.820 40.392 115.250 42.070 115.210 43.299 L 115.978 43.360 C 116.482 42.391 117.085 40.554 117.765 40.697 C 118.445 40.840 118.984 42.126 119.409 43.525 C 119.732 43.670 120.535 43.504 120.847 43.905 C 119.623 50.005 113.331 51.749 107.849 51.472 C 105.683 54.561 103.950 57.658 104.890 61.520 C 106.381 67.631 108.909 73.160 109.510 79.498 C 110.529 90.197 105.894 106.035 94.109 109.400 C 92.359 109.900 89.222 110.489 86.527 110.261 C 87.187 109.038 87.998 107.585 88.982 106.525 C 95.537 106.554 99.304 102.784 102.120 99.292 C 109.411 90.245 107.512 79.132 104.084 68.961 C 103.307 66.661 102.188 64.371 101.504 62.065 C 100.501 58.678 104.619 52.214 106.248 49.293 C 110.639 50.193 115.212 49.369 117.891 45.541 C 103.778 44.979 101.701 33.099 111.731 32.708 C 122.636 32.284 122.326 49.495 140.253 27.804 C 140.719 27.240 141.065 26.579 141.424 25.928 C 142.545 23.890 142.419 19.962 140.809 18.180 C 136.705 13.643 127.205 19.889 123.985 20.131 C 123.248 19.459 123.805 18.933 124.417 18.557 C 128.106 16.289 135.541 12.644 139.946 14.427 C 147.961 17.670 145.605 27.200 140.066 31.557 Z " transform="matrix(1.7689123153686523, 0, 0, 1.7689123153686523, -12.25, -14.95)"/>
    <path id="ID0.028785203117877245" fill="#272525" d="M 107.721 18.580 L 107.581 18.603 C 104.878 14.476 96.846 8.040 93.062 16.182 C 91.962 18.548 93.457 20.752 94.847 22.115 C 90.545 23.583 86.040 28.421 85.668 33.011 C 85.287 37.708 88.931 42.467 84.621 46.510 C 80.470 50.405 74.462 51.911 69.836 55.226 C 55.452 65.534 51.241 83.473 59.796 98.809 C 58.055 99.024 55.107 94.872 54.806 94.330 C 51.773 88.856 51.289 81.967 52.403 75.867 C 56.371 54.147 84.066 51 83.637 39.729 C 83.434 34.366 81.092 30.827 85.116 25.928 C 86.909 23.744 88.845 23.152 91.029 21.571 C 88.613 17.513 91.046 10.242 96.019 9.221 C 102.787 7.834 106.314 13.292 107.842 17.145 C 108.706 17.178 110.039 17.228 110.681 17.211 C 110.676 14.736 110.306 11.916 112.900 10.492 C 115.312 9.168 118.324 10.318 120.107 12.126 L 119.861 12.852 C 119.189 12.775 116.113 10.542 114.025 11.901 C 111.937 13.260 112.824 17.800 112.900 18.905 C 111.451 18.467 108.185 18.634 107.779 18.594 L 107.721 18.580 Z " transform="matrix(1.7689123153686523, 0, 0, 1.7689123153686523, -12.25, -14.95)"/>
    <path id="ID0.14894542656838894" fill="#272525" d="M 100.271 18.860 C 99.288 18.670 97.433 18.964 97.499 17.333 C 102.839 16.073 114.228 20.091 108.895 26.473 C 104.900 31.252 97.495 27.646 100.271 18.860 Z " transform="matrix(1.7689123153686523, 0, 0, 1.7689123153686523, -12.25, -14.95)"/>
    <path id="ID0.1913130721077323" fill="#FFFFFF" d="M 119.553 17.211 C 121.270 17.273 123.705 21.169 121.032 21.690 C 117.764 22.328 117.891 18.746 119.553 17.211 Z " transform="matrix(1.7689123153686523, 0, 0, 1.7689123153686523, -12.25, -14.95)"/>
    <path id="ID0.9910541600547731" fill="#272525" d="M 120.924 18.557 C 121.276 18.557 121.596 18.698 121.827 18.925 C 122.058 19.152 122.201 19.465 122.201 19.811 C 122.201 20.157 122.058 20.470 121.827 20.697 C 121.596 20.924 121.276 21.065 120.924 21.065 C 120.572 21.065 120.252 20.924 120.021 20.697 C 119.790 20.470 119.647 20.157 119.647 19.811 C 119.647 19.465 119.790 19.152 120.021 18.925 C 120.252 18.698 120.572 18.557 120.924 18.557 Z " transform="matrix(1.7689123153686523, 0, 0, 1.7689123153686523, -12.25, -14.95)"/>
    <path id="ID0.5553157888352871" fill="#FFFFFF" d="M 102.365 19.208 C 103.969 19.503 107.704 20.221 108.243 23.020 C 108.691 25.351 105.316 28.468 102.584 25.552 C 101.616 24.585 101.208 22.611 102.365 19.208 Z " transform="matrix(1.7689123153686523, 0, 0, 1.7689123153686523, -12.25, -14.95)"/>
    <path id="ID0.038594253826886415" fill="#272525" d="M 106.414 21.545 C 106.887 21.545 107.315 21.734 107.625 22.039 C 107.935 22.343 108.127 22.764 108.127 23.229 C 108.127 23.694 107.935 24.115 107.625 24.419 C 107.315 24.724 106.887 24.913 106.414 24.913 C 105.941 24.913 105.513 24.724 105.203 24.419 C 104.893 24.115 104.701 23.694 104.701 23.229 C 104.701 22.764 104.893 22.343 105.203 22.039 C 105.513 21.734 105.941 21.545 106.414 21.545 Z " transform="matrix(1.7689123153686523, 0, 0, 1.7689123153686523, -12.25, -14.95)"/>
    <path id="ID0.8505890402011573" fill="#272525" d="M 137.420 25.021 C 136.543 24.951 136.893 21.957 137.313 21.244 C 137.924 20.209 139.633 20.825 139.625 21.736 C 139.607 23.023 137.932 25.061 137.420 25.021 Z " transform="matrix(1.7689123153686523, 0, 0, 1.7689123153686523, -12.25, -14.95)"/>
    <path id="ID0.840165598783642" fill="#272525" d="M 134.029 27.502 C 134.425 28.356 130.599 32.438 127.806 30.831 C 127.204 30.485 127.103 29.513 127.375 28.955 C 128.460 26.744 133.637 26.648 134.029 27.502 Z " transform="matrix(1.7689123153686523, 0, 0, 1.7689123153686523, -12.25, -14.95)"/>
    <path id="ID0.38764088973402977" fill="#FFFFFF" d="M 140.238 34.636 C 140.002 34.960 138.452 34.001 138.082 33.879 C 138.468 33.576 138.773 33.071 139.082 32.708 C 139.575 32.586 140.477 34.312 140.238 34.636 Z " transform="matrix(1.7689123153686523, 0, 0, 1.7689123153686523, -12.25, -14.95)"/>
    <path id="ID0.9955913438461721" fill="#FFFFFF" d="M 113.023 34.342 C 113.085 34.766 112.705 35.894 112.284 35.795 C 111.861 35.695 111.592 34.447 111.592 34.447 L 113.023 34.342 Z " transform="matrix(1.7689123153686523, 0, 0, 1.7689123153686523, -12.25, -14.95)"/>
    <path id="ID0.30282016284763813" fill="#FFFFFF" d="M 117.645 36.339 C 117.522 36.944 116.501 37.755 116.166 37.671 C 115.829 37.587 116.179 36.088 116.522 35.771 C 116.721 35.587 117.281 35.984 117.645 36.339 Z " transform="matrix(1.7689123153686523, 0, 0, 1.7689123153686523, -12.25, -14.95)"/>
    <path id="ID0.8458572570234537" fill="#FFFFFF" d="M 134.152 37.671 L 134.892 36.824 C 135.573 37.685 135.115 38.385 134.152 37.671 Z " transform="matrix(1.7689123153686523, 0, 0, 1.7689123153686523, -12.25, -14.95)"/>
    <path id="ID0.4066847492940724" fill="#FFFFFF" d="M 122.325 39.548 C 122.263 39.911 121.740 40.948 121.449 40.916 C 121.158 40.885 121.410 38.798 121.410 38.798 L 122.325 39.548 Z " transform="matrix(1.7689123153686523, 0, 0, 1.7689123153686523, -12.25, -14.95)"/>
    <path id="ID0.3938895994797349" fill="#FFFFFF" d="M 128.805 39.894 C 129.173 40.379 128.624 42.097 128.380 42.203 C 128.137 42.307 127.294 40.644 127.418 40.160 C 127.604 40.038 128.495 39.894 128.805 39.894 Z " transform="matrix(1.7689123153686523, 0, 0, 1.7689123153686523, -12.25, -14.95)"/>
    <path id="ID0.4821348460391164" fill="#FFFFFF" d="M 109.758 41.424 L 108.436 40.311 C 108.436 40.311 109.635 39.736 109.938 39.894 C 110.238 40.052 109.818 41 109.758 41.424 Z " transform="matrix(1.7689123153686523, 0, 0, 1.7689123153686523, -12.25, -14.95)"/>
    <path id="ID0.7005050564184785" fill="#FFFFFF" d="M 114.211 43.110 L 113.023 42.877 C 113.085 42.454 113.390 41.630 113.761 41.727 C 114.134 41.824 114.173 42.467 114.211 43.110 Z " transform="matrix(1.7689123153686523, 0, 0, 1.7689123153686523, -12.25, -14.95)"/>
    <path id="ID0.789273161906749" fill="#FFFFFF" d="M 118.484 43.451 C 118.021 43.451 117.499 43.314 117.253 43.375 C 117.445 42.845 117.650 41.764 117.945 41.823 C 118.240 41.884 118.423 43.148 118.484 43.451 Z " transform="matrix(1.7689123153686523, 0, 0, 1.7689123153686523, -12.25, -14.95)"/>
    <path id="ID0.4912126366980374" fill="#272525" d="M 120.616 57.117 C 122.131 57.958 123.866 58.831 124.005 60.747 C 123.491 64.788 117.072 61.015 116.180 64.804 C 115.285 68.603 117.577 73.728 112.485 75.820 C 111.589 76.187 109.587 76.355 108.789 75.699 C 108.140 75.163 108.597 74.227 108.050 73.641 C 116.159 72.599 113.279 67.152 113.965 62.019 C 116.254 61.046 118.714 60.942 121.173 61.050 C 124.344 58.552 116.588 58.629 115.444 58.871 C 116.715 54.496 120.030 55.334 121.173 54.331 C 119.334 51.622 113.308 54.175 112.485 57.418 C 111.583 60.980 111.324 66.603 106.262 66.981 C 105.587 66.147 105.098 65.168 105.215 64.076 C 105.921 63.608 106.983 64.308 107.863 63.955 C 111.898 62.336 108.622 55.796 114.517 52.151 C 118.482 49.699 123.337 52.347 123.873 55.026 C 123.545 55.812 122.268 56.303 120.616 57.117 Z " transform="matrix(1.7689123153686523, 0, 0, 1.7689123153686523, -12.25, -14.95)"/>
    <path id="ID0.4895285558886826" fill="#272525" d="M 88.365 66.967 C 91.439 66.116 93.898 61.850 97.451 63.057 C 99.652 63.805 104.972 71.871 101.928 72.885 C 101.110 73.158 99.036 70.875 98.247 70.682 C 98.831 72.561 100.607 78.678 97.925 79.620 C 96.846 79.998 93.457 77.273 92.014 73.681 C 84.766 80.035 72.610 71.535 76.364 61.536 C 76.858 61.169 78.163 60.691 78.619 61.340 C 77.332 71.013 84.707 77.194 92.214 71.660 C 94.306 72.534 94.614 75.384 97.234 77.123 C 98.687 73.065 94.365 70.543 95.531 68.532 C 96.997 67.903 99.558 70.715 101.009 70.540 C 101.009 67.967 98.473 66.402 97.123 65.729 C 92.847 63.598 89.857 70.649 85.980 68.531 C 81.176 65.904 87.677 57.539 88.369 62.406 C 88.578 63.902 86.117 66.023 88.365 66.967 Z " transform="matrix(1.7689123153686523, 0, 0, 1.7689123153686523, -12.25, -14.95)"/>
    <path id="ID0.5330195692367852" fill="#272525" d="M 51.796 87.413 L 52.720 91.423 C 48.021 87.465 47.927 79.415 41.498 76.776 C 35.674 74.383 29.717 74.718 24.458 78.030 C 19.723 81.012 20.074 84.800 17.374 88.926 C 15.988 91.045 13.844 91.983 12.174 92.153 C 20.314 96.026 24.243 86.634 30.101 87.674 C 44.407 90.210 36.280 105.812 45.748 112.070 C 49.998 114.877 54.216 116.288 59.364 114.974 C 59.886 113.668 61.088 110.629 62.444 110.131 C 63.241 111.935 59.295 117.610 62.629 120.785 C 65.891 123.889 68.642 124.631 68.975 129.622 C 69.053 130.806 68.986 132.578 69.714 133.558 C 72.261 136.986 78.135 133.855 81.419 136.887 C 82.542 137.923 83.909 137.658 85.116 139.368 C 86.293 139.089 86.373 135.538 83.329 133.979 C 85.101 133.104 87.851 132.868 89.839 133.268 C 88.914 130.620 84.500 129.016 84.500 129.016 C 85.900 127.762 87.747 127.245 89.552 126.836 C 85.604 122.445 81.209 127.960 78.156 127.320 C 76.451 124.922 74.723 120.769 76.492 117.998 C 79.361 113.500 85.471 111.732 86.719 105.953 C 87.706 101.384 87.126 96.943 83.145 94.027 C 80.266 91.918 77.643 91.150 74.028 91.546 L 73.534 91 C 74.492 90.761 75.237 90.238 76.244 90.091 C 87.601 88.440 93.978 100.192 87.889 109.279 C 84.886 113.758 75.388 117.568 79.942 124.230 L 80.188 124.534 C 83.096 123.211 92.623 121.671 92.632 126.834 C 91.686 127.971 90.124 128.008 88.936 128.772 C 91.311 130.034 93.846 134.807 91.278 135.127 C 90.145 135.268 88.910 135.249 87.766 135.309 C 88.475 139.048 87.913 139.772 85.979 141.846 C 81.833 141.701 80.391 137.885 76.985 137.729 C 73.545 137.575 68.891 138.227 67.190 134.401 C 66.136 132.030 66.934 128.620 64.972 126.592 C 62.949 124.502 59.884 122.823 59.489 118.723 C 58.035 118.434 57.938 118.602 57.271 118.602 C 53.230 118.600 49.339 118.151 45.627 116.422 C 40.909 114.225 39.155 109.356 38.435 104.543 C 36.936 94.523 32.126 92.123 28.748 91.544 C 22.715 90.510 13.870 104.005 7 89.365 C 9.212 88.925 10.540 90.167 11.522 90.136 C 16.230 89.990 16.913 76.667 24.459 73.641 C 33.539 69.999 44.921 71.431 48.584 80.648 C 49.811 83.739 49.894 84.598 51.796 87.413 Z " transform="matrix(1.7689123153686523, 0, 0, 1.7689123153686523, -12.25, -14.95)"/>
    <path id="ID0.3759479490108788" fill="#272525" d="M 106.955 108.674 C 107.855 109.434 109.074 109.483 110.158 109.825 C 110.700 104.075 114.993 98.327 121.554 100.986 C 121.025 101.939 120.640 102.620 119.952 103.892 C 121.871 103.830 124.489 104.207 125.988 106.675 C 125.020 107.804 123.616 108.505 122.723 109.701 C 124.412 110.848 125.532 112.591 126.172 114.481 C 125.912 114.879 118.729 114.608 116.992 118.115 C 116.103 119.909 115.068 122.204 112.865 122.776 C 107.169 124.256 106.837 119.032 102.330 117.508 C 96.494 115.536 90.372 119.567 87.544 116.660 C 86.398 115.482 85.846 112.510 85.214 111.014 C 86.018 110.362 87.110 109.815 88.171 109.803 C 88.619 111.276 89.165 114.999 91.242 115.086 C 96.964 115.322 102.804 111.328 107.074 117.387 C 108.247 119.053 108.678 121.088 111.078 121.139 C 113.640 121.194 116.087 112.936 122.948 112.830 C 121.792 110.712 119.868 110.422 118.286 110.425 C 118.116 108.323 123.178 106.322 123.178 106.322 C 119.713 104.962 117.676 106.638 115.637 107.640 C 115.774 105.746 117.028 104.085 118.286 102.737 C 113.025 102.478 111.781 108.591 111.078 111.696 C 109.236 111.925 104.896 110.256 103.501 109.093 C 106.699 106.699 106.129 100.371 105.596 97.228 C 106.061 96.773 106.330 95.650 107.199 95.896 C 109.307 99.816 108.811 104.725 106.955 108.674 Z " transform="matrix(1.7689123153686523, 0, 0, 1.7689123153686523, -12.25, -14.95)"/>
  </g>
</svg>